<?xml version="1.0" encoding="utf-8" standalone="no"?>
<!DOCTYPE svg PUBLIC "-//W3C//DTD SVG 1.1//EN"
  "http://www.w3.org/Graphics/SVG/1.1/DTD/svg11.dtd">
<svg xmlns:xlink="http://www.w3.org/1999/xlink" width="1001.52pt" height="431.5875pt" viewBox="0 0 1001.52 431.5875" xmlns="http://www.w3.org/2000/svg" version="1.1">
 <metadata>
  <rdf:RDF xmlns:dc="http://purl.org/dc/elements/1.1/" xmlns:cc="http://creativecommons.org/ns#" xmlns:rdf="http://www.w3.org/1999/02/22-rdf-syntax-ns#">
   <cc:Work>
    <dc:type rdf:resource="http://purl.org/dc/dcmitype/StillImage"/>
    <dc:date>2026-02-23T19:41:24.450672</dc:date>
    <dc:format>image/svg+xml</dc:format>
    <dc:creator>
     <cc:Agent>
      <dc:title>Matplotlib v3.10.8, https://matplotlib.org/</dc:title>
     </cc:Agent>
    </dc:creator>
   </cc:Work>
  </rdf:RDF>
 </metadata>
 <defs>
  <style type="text/css">*{stroke-linejoin: round; stroke-linecap: butt}</style>
 </defs>
 <g id="figure_1">
  <g id="patch_1">
   <path d="M 0 431.5875 
L 1001.52 431.5875 
L 1001.52 0 
L 0 0 
z
" style="fill: #ffffff"/>
  </g>
  <g id="axes_1">
   <g id="patch_2">
    <path d="M 37.79625 392.0875 
L 994.32 392.0875 
L 994.32 30.8475 
L 37.79625 30.8475 
z
" style="fill: #ffffff"/>
   </g>
   <g id="matplotlib.axis_1">
    <g id="xtick_1">
     <g id="line2d_1">
      <path d="M 150.839966 392.0875 
L 150.839966 30.8475 
" clip-path="url(#p0667cd0db3)" style="fill: none; stroke: #cccccc; stroke-width: 0.8; stroke-linecap: round"/>
     </g>
     <g id="line2d_2"/>
     <g id="text_1">
      <!-- 2000 -->
      <g style="fill: #262626" transform="translate(139.718091 402.745312) scale(0.1 -0.1)">
       <defs>
        <path id="ArialMT-32" d="M 3222 541 
L 3222 0 
L 194 0 
Q 188 203 259 391 
Q 375 700 629 1000 
Q 884 1300 1366 1694 
Q 2113 2306 2375 2664 
Q 2638 3022 2638 3341 
Q 2638 3675 2398 3904 
Q 2159 4134 1775 4134 
Q 1369 4134 1125 3890 
Q 881 3647 878 3216 
L 300 3275 
Q 359 3922 746 4261 
Q 1134 4600 1788 4600 
Q 2447 4600 2831 4234 
Q 3216 3869 3216 3328 
Q 3216 3053 3103 2787 
Q 2991 2522 2730 2228 
Q 2469 1934 1863 1422 
Q 1356 997 1212 845 
Q 1069 694 975 541 
L 3222 541 
z
" transform="scale(0.015625)"/>
        <path id="ArialMT-30" d="M 266 2259 
Q 266 3072 433 3567 
Q 600 4063 929 4331 
Q 1259 4600 1759 4600 
Q 2128 4600 2406 4451 
Q 2684 4303 2865 4023 
Q 3047 3744 3150 3342 
Q 3253 2941 3253 2259 
Q 3253 1453 3087 958 
Q 2922 463 2592 192 
Q 2263 -78 1759 -78 
Q 1097 -78 719 397 
Q 266 969 266 2259 
z
M 844 2259 
Q 844 1131 1108 757 
Q 1372 384 1759 384 
Q 2147 384 2411 759 
Q 2675 1134 2675 2259 
Q 2675 3391 2411 3762 
Q 2147 4134 1753 4134 
Q 1366 4134 1134 3806 
Q 844 3388 844 2259 
z
" transform="scale(0.015625)"/>
       </defs>
       <use xlink:href="#ArialMT-32"/>
       <use xlink:href="#ArialMT-30" transform="translate(55.615234 0)"/>
       <use xlink:href="#ArialMT-30" transform="translate(111.230469 0)"/>
       <use xlink:href="#ArialMT-30" transform="translate(166.845703 0)"/>
      </g>
     </g>
    </g>
    <g id="xtick_2">
     <g id="line2d_3">
      <path d="M 324.753375 392.0875 
L 324.753375 30.8475 
" clip-path="url(#p0667cd0db3)" style="fill: none; stroke: #cccccc; stroke-width: 0.8; stroke-linecap: round"/>
     </g>
     <g id="line2d_4"/>
     <g id="text_2">
      <!-- 2005 -->
      <g style="fill: #262626" transform="translate(313.6315 402.745312) scale(0.1 -0.1)">
       <defs>
        <path id="ArialMT-35" d="M 266 1200 
L 856 1250 
Q 922 819 1161 601 
Q 1400 384 1738 384 
Q 2144 384 2425 690 
Q 2706 997 2706 1503 
Q 2706 1984 2436 2262 
Q 2166 2541 1728 2541 
Q 1456 2541 1237 2417 
Q 1019 2294 894 2097 
L 366 2166 
L 809 4519 
L 3088 4519 
L 3088 3981 
L 1259 3981 
L 1013 2750 
Q 1425 3038 1878 3038 
Q 2478 3038 2890 2622 
Q 3303 2206 3303 1553 
Q 3303 931 2941 478 
Q 2500 -78 1738 -78 
Q 1113 -78 717 272 
Q 322 622 266 1200 
z
" transform="scale(0.015625)"/>
       </defs>
       <use xlink:href="#ArialMT-32"/>
       <use xlink:href="#ArialMT-30" transform="translate(55.615234 0)"/>
       <use xlink:href="#ArialMT-30" transform="translate(111.230469 0)"/>
       <use xlink:href="#ArialMT-35" transform="translate(166.845703 0)"/>
      </g>
     </g>
    </g>
    <g id="xtick_3">
     <g id="line2d_5">
      <path d="M 498.666784 392.0875 
L 498.666784 30.8475 
" clip-path="url(#p0667cd0db3)" style="fill: none; stroke: #cccccc; stroke-width: 0.8; stroke-linecap: round"/>
     </g>
     <g id="line2d_6"/>
     <g id="text_3">
      <!-- 2010 -->
      <g style="fill: #262626" transform="translate(487.544909 402.745312) scale(0.1 -0.1)">
       <defs>
        <path id="ArialMT-31" d="M 2384 0 
L 1822 0 
L 1822 3584 
Q 1619 3391 1289 3197 
Q 959 3003 697 2906 
L 697 3450 
Q 1169 3672 1522 3987 
Q 1875 4303 2022 4600 
L 2384 4600 
L 2384 0 
z
" transform="scale(0.015625)"/>
       </defs>
       <use xlink:href="#ArialMT-32"/>
       <use xlink:href="#ArialMT-30" transform="translate(55.615234 0)"/>
       <use xlink:href="#ArialMT-31" transform="translate(111.230469 0)"/>
       <use xlink:href="#ArialMT-30" transform="translate(166.845703 0)"/>
      </g>
     </g>
    </g>
    <g id="xtick_4">
     <g id="line2d_7">
      <path d="M 672.580193 392.0875 
L 672.580193 30.8475 
" clip-path="url(#p0667cd0db3)" style="fill: none; stroke: #cccccc; stroke-width: 0.8; stroke-linecap: round"/>
     </g>
     <g id="line2d_8"/>
     <g id="text_4">
      <!-- 2015 -->
      <g style="fill: #262626" transform="translate(661.458318 402.745312) scale(0.1 -0.1)">
       <use xlink:href="#ArialMT-32"/>
       <use xlink:href="#ArialMT-30" transform="translate(55.615234 0)"/>
       <use xlink:href="#ArialMT-31" transform="translate(111.230469 0)"/>
       <use xlink:href="#ArialMT-35" transform="translate(166.845703 0)"/>
      </g>
     </g>
    </g>
    <g id="xtick_5">
     <g id="line2d_9">
      <path d="M 846.493602 392.0875 
L 846.493602 30.8475 
" clip-path="url(#p0667cd0db3)" style="fill: none; stroke: #cccccc; stroke-width: 0.8; stroke-linecap: round"/>
     </g>
     <g id="line2d_10"/>
     <g id="text_5">
      <!-- 2020 -->
      <g style="fill: #262626" transform="translate(835.371727 402.745312) scale(0.1 -0.1)">
       <use xlink:href="#ArialMT-32"/>
       <use xlink:href="#ArialMT-30" transform="translate(55.615234 0)"/>
       <use xlink:href="#ArialMT-32" transform="translate(111.230469 0)"/>
       <use xlink:href="#ArialMT-30" transform="translate(166.845703 0)"/>
      </g>
     </g>
    </g>
   </g>
   <g id="matplotlib.axis_2">
    <g id="ytick_1">
     <g id="line2d_11">
      <path d="M 37.79625 388.123275 
L 994.32 388.123275 
" clip-path="url(#p0667cd0db3)" style="fill: none; stroke: #cccccc; stroke-width: 0.8; stroke-linecap: round"/>
     </g>
     <g id="line2d_12"/>
     <g id="text_6">
      <!-- 3 -->
      <g style="fill: #262626" transform="translate(28.735312 391.702181) scale(0.1 -0.1)">
       <defs>
        <path id="ArialMT-33" d="M 269 1209 
L 831 1284 
Q 928 806 1161 595 
Q 1394 384 1728 384 
Q 2125 384 2398 659 
Q 2672 934 2672 1341 
Q 2672 1728 2419 1979 
Q 2166 2231 1775 2231 
Q 1616 2231 1378 2169 
L 1441 2663 
Q 1497 2656 1531 2656 
Q 1891 2656 2178 2843 
Q 2466 3031 2466 3422 
Q 2466 3731 2256 3934 
Q 2047 4138 1716 4138 
Q 1388 4138 1169 3931 
Q 950 3725 888 3313 
L 325 3413 
Q 428 3978 793 4289 
Q 1159 4600 1703 4600 
Q 2078 4600 2393 4439 
Q 2709 4278 2876 4000 
Q 3044 3722 3044 3409 
Q 3044 3113 2884 2869 
Q 2725 2625 2413 2481 
Q 2819 2388 3044 2092 
Q 3269 1797 3269 1353 
Q 3269 753 2831 336 
Q 2394 -81 1725 -81 
Q 1122 -81 723 278 
Q 325 638 269 1209 
z
" transform="scale(0.015625)"/>
       </defs>
       <use xlink:href="#ArialMT-33"/>
      </g>
     </g>
    </g>
    <g id="ytick_2">
     <g id="line2d_13">
      <path d="M 37.79625 338.570463 
L 994.32 338.570463 
" clip-path="url(#p0667cd0db3)" style="fill: none; stroke: #cccccc; stroke-width: 0.8; stroke-linecap: round"/>
     </g>
     <g id="line2d_14"/>
     <g id="text_7">
      <!-- 4 -->
      <g style="fill: #262626" transform="translate(28.735312 342.149369) scale(0.1 -0.1)">
       <defs>
        <path id="ArialMT-34" d="M 2069 0 
L 2069 1097 
L 81 1097 
L 81 1613 
L 2172 4581 
L 2631 4581 
L 2631 1613 
L 3250 1613 
L 3250 1097 
L 2631 1097 
L 2631 0 
L 2069 0 
z
M 2069 1613 
L 2069 3678 
L 634 1613 
L 2069 1613 
z
" transform="scale(0.015625)"/>
       </defs>
       <use xlink:href="#ArialMT-34"/>
      </g>
     </g>
    </g>
    <g id="ytick_3">
     <g id="line2d_15">
      <path d="M 37.79625 289.017651 
L 994.32 289.017651 
" clip-path="url(#p0667cd0db3)" style="fill: none; stroke: #cccccc; stroke-width: 0.8; stroke-linecap: round"/>
     </g>
     <g id="line2d_16"/>
     <g id="text_8">
      <!-- 5 -->
      <g style="fill: #262626" transform="translate(28.735312 292.596557) scale(0.1 -0.1)">
       <use xlink:href="#ArialMT-35"/>
      </g>
     </g>
    </g>
    <g id="ytick_4">
     <g id="line2d_17">
      <path d="M 37.79625 239.464839 
L 994.32 239.464839 
" clip-path="url(#p0667cd0db3)" style="fill: none; stroke: #cccccc; stroke-width: 0.8; stroke-linecap: round"/>
     </g>
     <g id="line2d_18"/>
     <g id="text_9">
      <!-- 6 -->
      <g style="fill: #262626" transform="translate(28.735312 243.043745) scale(0.1 -0.1)">
       <defs>
        <path id="ArialMT-36" d="M 3184 3459 
L 2625 3416 
Q 2550 3747 2413 3897 
Q 2184 4138 1850 4138 
Q 1581 4138 1378 3988 
Q 1113 3794 959 3422 
Q 806 3050 800 2363 
Q 1003 2672 1297 2822 
Q 1591 2972 1913 2972 
Q 2475 2972 2870 2558 
Q 3266 2144 3266 1488 
Q 3266 1056 3080 686 
Q 2894 316 2569 119 
Q 2244 -78 1831 -78 
Q 1128 -78 684 439 
Q 241 956 241 2144 
Q 241 3472 731 4075 
Q 1159 4600 1884 4600 
Q 2425 4600 2770 4297 
Q 3116 3994 3184 3459 
z
M 888 1484 
Q 888 1194 1011 928 
Q 1134 663 1356 523 
Q 1578 384 1822 384 
Q 2178 384 2434 671 
Q 2691 959 2691 1453 
Q 2691 1928 2437 2201 
Q 2184 2475 1800 2475 
Q 1419 2475 1153 2201 
Q 888 1928 888 1484 
z
" transform="scale(0.015625)"/>
       </defs>
       <use xlink:href="#ArialMT-36"/>
      </g>
     </g>
    </g>
    <g id="ytick_5">
     <g id="line2d_19">
      <path d="M 37.79625 189.912027 
L 994.32 189.912027 
" clip-path="url(#p0667cd0db3)" style="fill: none; stroke: #cccccc; stroke-width: 0.8; stroke-linecap: round"/>
     </g>
     <g id="line2d_20"/>
     <g id="text_10">
      <!-- 7 -->
      <g style="fill: #262626" transform="translate(28.735312 193.490933) scale(0.1 -0.1)">
       <defs>
        <path id="ArialMT-37" d="M 303 3981 
L 303 4522 
L 3269 4522 
L 3269 4084 
Q 2831 3619 2401 2847 
Q 1972 2075 1738 1259 
Q 1569 684 1522 0 
L 944 0 
Q 953 541 1156 1306 
Q 1359 2072 1739 2783 
Q 2119 3494 2547 3981 
L 303 3981 
z
" transform="scale(0.015625)"/>
       </defs>
       <use xlink:href="#ArialMT-37"/>
      </g>
     </g>
    </g>
    <g id="ytick_6">
     <g id="line2d_21">
      <path d="M 37.79625 140.359215 
L 994.32 140.359215 
" clip-path="url(#p0667cd0db3)" style="fill: none; stroke: #cccccc; stroke-width: 0.8; stroke-linecap: round"/>
     </g>
     <g id="line2d_22"/>
     <g id="text_11">
      <!-- 8 -->
      <g style="fill: #262626" transform="translate(28.735312 143.938121) scale(0.1 -0.1)">
       <defs>
        <path id="ArialMT-38" d="M 1131 2484 
Q 781 2613 612 2850 
Q 444 3088 444 3419 
Q 444 3919 803 4259 
Q 1163 4600 1759 4600 
Q 2359 4600 2725 4251 
Q 3091 3903 3091 3403 
Q 3091 3084 2923 2848 
Q 2756 2613 2416 2484 
Q 2838 2347 3058 2040 
Q 3278 1734 3278 1309 
Q 3278 722 2862 322 
Q 2447 -78 1769 -78 
Q 1091 -78 675 323 
Q 259 725 259 1325 
Q 259 1772 486 2073 
Q 713 2375 1131 2484 
z
M 1019 3438 
Q 1019 3113 1228 2906 
Q 1438 2700 1772 2700 
Q 2097 2700 2305 2904 
Q 2513 3109 2513 3406 
Q 2513 3716 2298 3927 
Q 2084 4138 1766 4138 
Q 1444 4138 1231 3931 
Q 1019 3725 1019 3438 
z
M 838 1322 
Q 838 1081 952 856 
Q 1066 631 1291 507 
Q 1516 384 1775 384 
Q 2178 384 2440 643 
Q 2703 903 2703 1303 
Q 2703 1709 2433 1975 
Q 2163 2241 1756 2241 
Q 1359 2241 1098 1978 
Q 838 1716 838 1322 
z
" transform="scale(0.015625)"/>
       </defs>
       <use xlink:href="#ArialMT-38"/>
      </g>
     </g>
    </g>
    <g id="ytick_7">
     <g id="line2d_23">
      <path d="M 37.79625 90.806403 
L 994.32 90.806403 
" clip-path="url(#p0667cd0db3)" style="fill: none; stroke: #cccccc; stroke-width: 0.8; stroke-linecap: round"/>
     </g>
     <g id="line2d_24"/>
     <g id="text_12">
      <!-- 9 -->
      <g style="fill: #262626" transform="translate(28.735312 94.385309) scale(0.1 -0.1)">
       <defs>
        <path id="ArialMT-39" d="M 350 1059 
L 891 1109 
Q 959 728 1153 556 
Q 1347 384 1650 384 
Q 1909 384 2104 503 
Q 2300 622 2425 820 
Q 2550 1019 2634 1356 
Q 2719 1694 2719 2044 
Q 2719 2081 2716 2156 
Q 2547 1888 2255 1720 
Q 1963 1553 1622 1553 
Q 1053 1553 659 1965 
Q 266 2378 266 3053 
Q 266 3750 677 4175 
Q 1088 4600 1706 4600 
Q 2153 4600 2523 4359 
Q 2894 4119 3086 3673 
Q 3278 3228 3278 2384 
Q 3278 1506 3087 986 
Q 2897 466 2520 194 
Q 2144 -78 1638 -78 
Q 1100 -78 759 220 
Q 419 519 350 1059 
z
M 2653 3081 
Q 2653 3566 2395 3850 
Q 2138 4134 1775 4134 
Q 1400 4134 1122 3828 
Q 844 3522 844 3034 
Q 844 2597 1108 2323 
Q 1372 2050 1759 2050 
Q 2150 2050 2401 2323 
Q 2653 2597 2653 3081 
z
" transform="scale(0.015625)"/>
       </defs>
       <use xlink:href="#ArialMT-39"/>
      </g>
     </g>
    </g>
    <g id="ytick_8">
     <g id="line2d_25">
      <path d="M 37.79625 41.253591 
L 994.32 41.253591 
" clip-path="url(#p0667cd0db3)" style="fill: none; stroke: #cccccc; stroke-width: 0.8; stroke-linecap: round"/>
     </g>
     <g id="line2d_26"/>
     <g id="text_13">
      <!-- 10 -->
      <g style="fill: #262626" transform="translate(23.174375 44.832497) scale(0.1 -0.1)">
       <use xlink:href="#ArialMT-31"/>
       <use xlink:href="#ArialMT-30" transform="translate(55.615234 0)"/>
      </g>
     </g>
    </g>
    <g id="text_14">
     <!-- Turnover (% of stock) -->
     <g style="fill: #262626" transform="translate(16.64875 268.5875) rotate(-90) scale(0.12 -0.12)">
      <defs>
       <path id="ArialMT-54" d="M 1659 0 
L 1659 4041 
L 150 4041 
L 150 4581 
L 3781 4581 
L 3781 4041 
L 2266 4041 
L 2266 0 
L 1659 0 
z
" transform="scale(0.015625)"/>
       <path id="ArialMT-75" d="M 2597 0 
L 2597 488 
Q 2209 -75 1544 -75 
Q 1250 -75 995 37 
Q 741 150 617 320 
Q 494 491 444 738 
Q 409 903 409 1263 
L 409 3319 
L 972 3319 
L 972 1478 
Q 972 1038 1006 884 
Q 1059 663 1231 536 
Q 1403 409 1656 409 
Q 1909 409 2131 539 
Q 2353 669 2445 892 
Q 2538 1116 2538 1541 
L 2538 3319 
L 3100 3319 
L 3100 0 
L 2597 0 
z
" transform="scale(0.015625)"/>
       <path id="ArialMT-72" d="M 416 0 
L 416 3319 
L 922 3319 
L 922 2816 
Q 1116 3169 1280 3281 
Q 1444 3394 1641 3394 
Q 1925 3394 2219 3213 
L 2025 2691 
Q 1819 2813 1613 2813 
Q 1428 2813 1281 2702 
Q 1134 2591 1072 2394 
Q 978 2094 978 1738 
L 978 0 
L 416 0 
z
" transform="scale(0.015625)"/>
       <path id="ArialMT-6e" d="M 422 0 
L 422 3319 
L 928 3319 
L 928 2847 
Q 1294 3394 1984 3394 
Q 2284 3394 2536 3286 
Q 2788 3178 2913 3003 
Q 3038 2828 3088 2588 
Q 3119 2431 3119 2041 
L 3119 0 
L 2556 0 
L 2556 2019 
Q 2556 2363 2490 2533 
Q 2425 2703 2258 2804 
Q 2091 2906 1866 2906 
Q 1506 2906 1245 2678 
Q 984 2450 984 1813 
L 984 0 
L 422 0 
z
" transform="scale(0.015625)"/>
       <path id="ArialMT-6f" d="M 213 1659 
Q 213 2581 725 3025 
Q 1153 3394 1769 3394 
Q 2453 3394 2887 2945 
Q 3322 2497 3322 1706 
Q 3322 1066 3130 698 
Q 2938 331 2570 128 
Q 2203 -75 1769 -75 
Q 1072 -75 642 372 
Q 213 819 213 1659 
z
M 791 1659 
Q 791 1022 1069 705 
Q 1347 388 1769 388 
Q 2188 388 2466 706 
Q 2744 1025 2744 1678 
Q 2744 2294 2464 2611 
Q 2184 2928 1769 2928 
Q 1347 2928 1069 2612 
Q 791 2297 791 1659 
z
" transform="scale(0.015625)"/>
       <path id="ArialMT-76" d="M 1344 0 
L 81 3319 
L 675 3319 
L 1388 1331 
Q 1503 1009 1600 663 
Q 1675 925 1809 1294 
L 2547 3319 
L 3125 3319 
L 1869 0 
L 1344 0 
z
" transform="scale(0.015625)"/>
       <path id="ArialMT-65" d="M 2694 1069 
L 3275 997 
Q 3138 488 2766 206 
Q 2394 -75 1816 -75 
Q 1088 -75 661 373 
Q 234 822 234 1631 
Q 234 2469 665 2931 
Q 1097 3394 1784 3394 
Q 2450 3394 2872 2941 
Q 3294 2488 3294 1666 
Q 3294 1616 3291 1516 
L 816 1516 
Q 847 969 1125 678 
Q 1403 388 1819 388 
Q 2128 388 2347 550 
Q 2566 713 2694 1069 
z
M 847 1978 
L 2700 1978 
Q 2663 2397 2488 2606 
Q 2219 2931 1791 2931 
Q 1403 2931 1139 2672 
Q 875 2413 847 1978 
z
" transform="scale(0.015625)"/>
       <path id="ArialMT-20" transform="scale(0.015625)"/>
       <path id="ArialMT-28" d="M 1497 -1347 
Q 1031 -759 709 28 
Q 388 816 388 1659 
Q 388 2403 628 3084 
Q 909 3875 1497 4659 
L 1900 4659 
Q 1522 4009 1400 3731 
Q 1209 3300 1100 2831 
Q 966 2247 966 1656 
Q 966 153 1900 -1347 
L 1497 -1347 
z
" transform="scale(0.015625)"/>
       <path id="ArialMT-25" d="M 372 3481 
Q 372 3972 619 4315 
Q 866 4659 1334 4659 
Q 1766 4659 2048 4351 
Q 2331 4044 2331 3447 
Q 2331 2866 2045 2552 
Q 1759 2238 1341 2238 
Q 925 2238 648 2547 
Q 372 2856 372 3481 
z
M 1350 4272 
Q 1141 4272 1002 4090 
Q 863 3909 863 3425 
Q 863 2984 1003 2804 
Q 1144 2625 1350 2625 
Q 1563 2625 1702 2806 
Q 1841 2988 1841 3469 
Q 1841 3913 1700 4092 
Q 1559 4272 1350 4272 
z
M 1353 -169 
L 3859 4659 
L 4316 4659 
L 1819 -169 
L 1353 -169 
z
M 3334 1075 
Q 3334 1569 3581 1911 
Q 3828 2253 4300 2253 
Q 4731 2253 5014 1945 
Q 5297 1638 5297 1041 
Q 5297 459 5011 145 
Q 4725 -169 4303 -169 
Q 3888 -169 3611 142 
Q 3334 453 3334 1075 
z
M 4316 1866 
Q 4103 1866 3964 1684 
Q 3825 1503 3825 1019 
Q 3825 581 3965 400 
Q 4106 219 4313 219 
Q 4528 219 4667 400 
Q 4806 581 4806 1063 
Q 4806 1506 4665 1686 
Q 4525 1866 4316 1866 
z
" transform="scale(0.015625)"/>
       <path id="ArialMT-66" d="M 556 0 
L 556 2881 
L 59 2881 
L 59 3319 
L 556 3319 
L 556 3672 
Q 556 4006 616 4169 
Q 697 4388 901 4523 
Q 1106 4659 1475 4659 
Q 1713 4659 2000 4603 
L 1916 4113 
Q 1741 4144 1584 4144 
Q 1328 4144 1222 4034 
Q 1116 3925 1116 3625 
L 1116 3319 
L 1763 3319 
L 1763 2881 
L 1116 2881 
L 1116 0 
L 556 0 
z
" transform="scale(0.015625)"/>
       <path id="ArialMT-73" d="M 197 991 
L 753 1078 
Q 800 744 1014 566 
Q 1228 388 1613 388 
Q 2000 388 2187 545 
Q 2375 703 2375 916 
Q 2375 1106 2209 1216 
Q 2094 1291 1634 1406 
Q 1016 1563 777 1677 
Q 538 1791 414 1992 
Q 291 2194 291 2438 
Q 291 2659 392 2848 
Q 494 3038 669 3163 
Q 800 3259 1026 3326 
Q 1253 3394 1513 3394 
Q 1903 3394 2198 3281 
Q 2494 3169 2634 2976 
Q 2775 2784 2828 2463 
L 2278 2388 
Q 2241 2644 2061 2787 
Q 1881 2931 1553 2931 
Q 1166 2931 1000 2803 
Q 834 2675 834 2503 
Q 834 2394 903 2306 
Q 972 2216 1119 2156 
Q 1203 2125 1616 2013 
Q 2213 1853 2448 1751 
Q 2684 1650 2818 1456 
Q 2953 1263 2953 975 
Q 2953 694 2789 445 
Q 2625 197 2315 61 
Q 2006 -75 1616 -75 
Q 969 -75 630 194 
Q 291 463 197 991 
z
" transform="scale(0.015625)"/>
       <path id="ArialMT-74" d="M 1650 503 
L 1731 6 
Q 1494 -44 1306 -44 
Q 1000 -44 831 53 
Q 663 150 594 308 
Q 525 466 525 972 
L 525 2881 
L 113 2881 
L 113 3319 
L 525 3319 
L 525 4141 
L 1084 4478 
L 1084 3319 
L 1650 3319 
L 1650 2881 
L 1084 2881 
L 1084 941 
Q 1084 700 1114 631 
Q 1144 563 1211 522 
Q 1278 481 1403 481 
Q 1497 481 1650 503 
z
" transform="scale(0.015625)"/>
       <path id="ArialMT-63" d="M 2588 1216 
L 3141 1144 
Q 3050 572 2676 248 
Q 2303 -75 1759 -75 
Q 1078 -75 664 370 
Q 250 816 250 1647 
Q 250 2184 428 2587 
Q 606 2991 970 3192 
Q 1334 3394 1763 3394 
Q 2303 3394 2647 3120 
Q 2991 2847 3088 2344 
L 2541 2259 
Q 2463 2594 2264 2762 
Q 2066 2931 1784 2931 
Q 1359 2931 1093 2626 
Q 828 2322 828 1663 
Q 828 994 1084 691 
Q 1341 388 1753 388 
Q 2084 388 2306 591 
Q 2528 794 2588 1216 
z
" transform="scale(0.015625)"/>
       <path id="ArialMT-6b" d="M 425 0 
L 425 4581 
L 988 4581 
L 988 1969 
L 2319 3319 
L 3047 3319 
L 1778 2088 
L 3175 0 
L 2481 0 
L 1384 1697 
L 988 1316 
L 988 0 
L 425 0 
z
" transform="scale(0.015625)"/>
       <path id="ArialMT-29" d="M 791 -1347 
L 388 -1347 
Q 1322 153 1322 1656 
Q 1322 2244 1188 2822 
Q 1081 3291 891 3722 
Q 769 4003 388 4659 
L 791 4659 
Q 1378 3875 1659 3084 
Q 1900 2403 1900 1659 
Q 1900 816 1576 28 
Q 1253 -759 791 -1347 
z
" transform="scale(0.015625)"/>
      </defs>
      <use xlink:href="#ArialMT-54"/>
      <use xlink:href="#ArialMT-75" transform="translate(57.333984 0)"/>
      <use xlink:href="#ArialMT-72" transform="translate(112.949219 0)"/>
      <use xlink:href="#ArialMT-6e" transform="translate(146.25 0)"/>
      <use xlink:href="#ArialMT-6f" transform="translate(201.865234 0)"/>
      <use xlink:href="#ArialMT-76" transform="translate(257.480469 0)"/>
      <use xlink:href="#ArialMT-65" transform="translate(307.480469 0)"/>
      <use xlink:href="#ArialMT-72" transform="translate(363.095703 0)"/>
      <use xlink:href="#ArialMT-20" transform="translate(396.396484 0)"/>
      <use xlink:href="#ArialMT-28" transform="translate(424.179688 0)"/>
      <use xlink:href="#ArialMT-25" transform="translate(457.480469 0)"/>
      <use xlink:href="#ArialMT-20" transform="translate(546.396484 0)"/>
      <use xlink:href="#ArialMT-6f" transform="translate(574.179688 0)"/>
      <use xlink:href="#ArialMT-66" transform="translate(629.794922 0)"/>
      <use xlink:href="#ArialMT-20" transform="translate(657.578125 0)"/>
      <use xlink:href="#ArialMT-73" transform="translate(685.361328 0)"/>
      <use xlink:href="#ArialMT-74" transform="translate(735.361328 0)"/>
      <use xlink:href="#ArialMT-6f" transform="translate(763.144531 0)"/>
      <use xlink:href="#ArialMT-63" transform="translate(818.759766 0)"/>
      <use xlink:href="#ArialMT-6b" transform="translate(868.759766 0)"/>
      <use xlink:href="#ArialMT-29" transform="translate(918.759766 0)"/>
     </g>
    </g>
   </g>
   <g id="line2d_27">
    <path d="M 81.274602 180.992521 
L 116.057284 136.890518 
L 150.839966 163.153508 
L 185.622648 127.475484 
L 220.40533 90.310874 
L 255.188011 127.971012 
L 289.970693 126.484427 
L 324.753375 192.885195 
L 359.536057 107.158831 
L 394.318739 124.006787 
L 429.10142 325.686732 
L 463.884102 331.633069 
L 498.666784 317.262754 
L 533.449466 316.767226 
L 568.232148 312.307473 
L 637.797511 218.15713 
L 672.580193 222.121355 
L 707.362875 237.482726 
L 742.145557 228.56322 
L 742.145557 251.853042 
L 776.928239 264.736773 
L 811.71092 311.316416 
L 846.493602 232.527445 
L 881.276284 306.856663 
L 950.841648 352.44525 
" clip-path="url(#p0667cd0db3)" style="fill: none; stroke: #123c69; stroke-width: 3; stroke-linecap: round"/>
   </g>
   <g id="patch_3">
    <path d="M 37.79625 392.0875 
L 37.79625 30.8475 
" style="fill: none; stroke: #cccccc; stroke-linejoin: miter; stroke-linecap: square"/>
   </g>
   <g id="patch_4">
    <path d="M 994.32 392.0875 
L 994.32 30.8475 
" style="fill: none; stroke: #cccccc; stroke-linejoin: miter; stroke-linecap: square"/>
   </g>
   <g id="patch_5">
    <path d="M 37.79625 392.0875 
L 994.32 392.0875 
" style="fill: none; stroke: #cccccc; stroke-linejoin: miter; stroke-linecap: square"/>
   </g>
   <g id="patch_6">
    <path d="M 37.79625 30.8475 
L 994.32 30.8475 
" style="fill: none; stroke: #cccccc; stroke-linejoin: miter; stroke-linecap: square"/>
   </g>
   <g id="patch_7">
    <path d="M 264.193957 67.081602 
Q 243.182953 78.227654 223.653447 88.587792 
" style="fill: none; stroke: #e63946; stroke-width: 1.5; stroke-linecap: round"/>
    <path d="M 228.571369 88.469293 
L 223.653447 88.587792 
L 226.509401 84.582355 
" style="fill: none; stroke: #e63946; stroke-width: 1.5; stroke-linecap: round"/>
   </g>
   <g id="text_15">
    <g id="patch_8">
     <path d="M 255.188011 65.644343 
L 330.680668 65.644343 
Q 333.430668 65.644343 333.430668 62.894343 
L 333.430668 40.905 
Q 333.430668 38.155 330.680668 38.155 
L 255.188011 38.155 
Q 252.438011 38.155 252.438011 40.905 
L 252.438011 62.894343 
Q 252.438011 65.644343 255.188011 65.644343 
z
" style="fill: #ffffff; stroke: #e63946; stroke-linejoin: miter"/>
    </g>
    <!-- Pre‑GFC peak -->
    <g style="fill: #e63946" transform="translate(255.188011 48.78375) scale(0.11 -0.11)">
     <defs>
      <path id="ArialMT-50" d="M 494 0 
L 494 4581 
L 2222 4581 
Q 2678 4581 2919 4538 
Q 3256 4481 3484 4323 
Q 3713 4166 3852 3881 
Q 3991 3597 3991 3256 
Q 3991 2672 3619 2267 
Q 3247 1863 2275 1863 
L 1100 1863 
L 1100 0 
L 494 0 
z
M 1100 2403 
L 2284 2403 
Q 2872 2403 3119 2622 
Q 3366 2841 3366 3238 
Q 3366 3525 3220 3729 
Q 3075 3934 2838 4000 
Q 2684 4041 2272 4041 
L 1100 4041 
L 1100 2403 
z
" transform="scale(0.015625)"/>
      <path id="ArialMT-2011" d="M 800 0 
L 800 4000 
L 4000 4000 
L 4000 0 
L 800 0 
z
M 900 100 
L 3900 100 
L 3900 3900 
L 900 3900 
L 900 100 
z
" transform="scale(0.015625)"/>
      <path id="ArialMT-47" d="M 2638 1797 
L 2638 2334 
L 4578 2338 
L 4578 638 
Q 4131 281 3656 101 
Q 3181 -78 2681 -78 
Q 2006 -78 1454 211 
Q 903 500 622 1047 
Q 341 1594 341 2269 
Q 341 2938 620 3517 
Q 900 4097 1425 4378 
Q 1950 4659 2634 4659 
Q 3131 4659 3532 4498 
Q 3934 4338 4162 4050 
Q 4391 3763 4509 3300 
L 3963 3150 
Q 3859 3500 3706 3700 
Q 3553 3900 3268 4020 
Q 2984 4141 2638 4141 
Q 2222 4141 1919 4014 
Q 1616 3888 1430 3681 
Q 1244 3475 1141 3228 
Q 966 2803 966 2306 
Q 966 1694 1177 1281 
Q 1388 869 1791 669 
Q 2194 469 2647 469 
Q 3041 469 3416 620 
Q 3791 772 3984 944 
L 3984 1797 
L 2638 1797 
z
" transform="scale(0.015625)"/>
      <path id="ArialMT-46" d="M 525 0 
L 525 4581 
L 3616 4581 
L 3616 4041 
L 1131 4041 
L 1131 2622 
L 3281 2622 
L 3281 2081 
L 1131 2081 
L 1131 0 
L 525 0 
z
" transform="scale(0.015625)"/>
      <path id="ArialMT-43" d="M 3763 1606 
L 4369 1453 
Q 4178 706 3683 314 
Q 3188 -78 2472 -78 
Q 1731 -78 1267 223 
Q 803 525 561 1097 
Q 319 1669 319 2325 
Q 319 3041 592 3573 
Q 866 4106 1370 4382 
Q 1875 4659 2481 4659 
Q 3169 4659 3637 4309 
Q 4106 3959 4291 3325 
L 3694 3184 
Q 3534 3684 3231 3912 
Q 2928 4141 2469 4141 
Q 1941 4141 1586 3887 
Q 1231 3634 1087 3207 
Q 944 2781 944 2328 
Q 944 1744 1114 1308 
Q 1284 872 1643 656 
Q 2003 441 2422 441 
Q 2931 441 3284 734 
Q 3638 1028 3763 1606 
z
" transform="scale(0.015625)"/>
      <path id="ArialMT-70" d="M 422 -1272 
L 422 3319 
L 934 3319 
L 934 2888 
Q 1116 3141 1344 3267 
Q 1572 3394 1897 3394 
Q 2322 3394 2647 3175 
Q 2972 2956 3137 2557 
Q 3303 2159 3303 1684 
Q 3303 1175 3120 767 
Q 2938 359 2589 142 
Q 2241 -75 1856 -75 
Q 1575 -75 1351 44 
Q 1128 163 984 344 
L 984 -1272 
L 422 -1272 
z
M 931 1641 
Q 931 1000 1190 694 
Q 1450 388 1819 388 
Q 2194 388 2461 705 
Q 2728 1022 2728 1688 
Q 2728 2322 2467 2637 
Q 2206 2953 1844 2953 
Q 1484 2953 1207 2617 
Q 931 2281 931 1641 
z
" transform="scale(0.015625)"/>
      <path id="ArialMT-61" d="M 2588 409 
Q 2275 144 1986 34 
Q 1697 -75 1366 -75 
Q 819 -75 525 192 
Q 231 459 231 875 
Q 231 1119 342 1320 
Q 453 1522 633 1644 
Q 813 1766 1038 1828 
Q 1203 1872 1538 1913 
Q 2219 1994 2541 2106 
Q 2544 2222 2544 2253 
Q 2544 2597 2384 2738 
Q 2169 2928 1744 2928 
Q 1347 2928 1158 2789 
Q 969 2650 878 2297 
L 328 2372 
Q 403 2725 575 2942 
Q 747 3159 1072 3276 
Q 1397 3394 1825 3394 
Q 2250 3394 2515 3294 
Q 2781 3194 2906 3042 
Q 3031 2891 3081 2659 
Q 3109 2516 3109 2141 
L 3109 1391 
Q 3109 606 3145 398 
Q 3181 191 3288 0 
L 2700 0 
Q 2613 175 2588 409 
z
M 2541 1666 
Q 2234 1541 1622 1453 
Q 1275 1403 1131 1340 
Q 988 1278 909 1158 
Q 831 1038 831 891 
Q 831 666 1001 516 
Q 1172 366 1500 366 
Q 1825 366 2078 508 
Q 2331 650 2450 897 
Q 2541 1088 2541 1459 
L 2541 1666 
z
" transform="scale(0.015625)"/>
     </defs>
     <use xlink:href="#ArialMT-50"/>
     <use xlink:href="#ArialMT-72" transform="translate(66.699219 0)"/>
     <use xlink:href="#ArialMT-65" transform="translate(100 0)"/>
     <use xlink:href="#ArialMT-2011" transform="translate(155.615234 0)"/>
     <use xlink:href="#ArialMT-47" transform="translate(230.615234 0)"/>
     <use xlink:href="#ArialMT-46" transform="translate(308.398438 0)"/>
     <use xlink:href="#ArialMT-43" transform="translate(369.482422 0)"/>
     <use xlink:href="#ArialMT-20" transform="translate(441.699219 0)"/>
     <use xlink:href="#ArialMT-70" transform="translate(469.482422 0)"/>
     <use xlink:href="#ArialMT-65" transform="translate(525.097656 0)"/>
     <use xlink:href="#ArialMT-61" transform="translate(580.712891 0)"/>
     <use xlink:href="#ArialMT-6b" transform="translate(636.328125 0)"/>
    </g>
    <!-- 9.01% (2002) -->
    <g style="fill: #e63946" transform="translate(255.188011 60.579187) scale(0.11 -0.11)">
     <defs>
      <path id="ArialMT-2e" d="M 581 0 
L 581 641 
L 1222 641 
L 1222 0 
L 581 0 
z
" transform="scale(0.015625)"/>
     </defs>
     <use xlink:href="#ArialMT-39"/>
     <use xlink:href="#ArialMT-2e" transform="translate(55.615234 0)"/>
     <use xlink:href="#ArialMT-30" transform="translate(83.398438 0)"/>
     <use xlink:href="#ArialMT-31" transform="translate(139.013672 0)"/>
     <use xlink:href="#ArialMT-25" transform="translate(194.628906 0)"/>
     <use xlink:href="#ArialMT-20" transform="translate(283.544922 0)"/>
     <use xlink:href="#ArialMT-28" transform="translate(311.328125 0)"/>
     <use xlink:href="#ArialMT-32" transform="translate(344.628906 0)"/>
     <use xlink:href="#ArialMT-30" transform="translate(400.244141 0)"/>
     <use xlink:href="#ArialMT-30" transform="translate(455.859375 0)"/>
     <use xlink:href="#ArialMT-32" transform="translate(511.474609 0)"/>
     <use xlink:href="#ArialMT-29" transform="translate(567.089844 0)"/>
    </g>
   </g>
   <g id="patch_9">
    <path d="M 778.596006 312.899614 
Q 863.745057 332.448865 947.259582 351.622849 
" style="fill: none; stroke: #2a9d8f; stroke-width: 1.5; stroke-linecap: round"/>
    <path d="M 943.463441 348.494061 
L 947.259582 351.622849 
L 942.478867 352.782489 
" style="fill: none; stroke: #2a9d8f; stroke-width: 1.5; stroke-linecap: round"/>
   </g>
   <g id="text_16">
    <g id="patch_10">
     <path d="M 707.362875 317.868157 
L 773.400687 317.868157 
Q 776.150687 317.868157 776.150687 315.118157 
L 776.150687 293.262876 
Q 776.150687 290.512876 773.400687 290.512876 
L 707.362875 290.512876 
Q 704.612875 290.512876 704.612875 293.262876 
L 704.612875 315.118157 
Q 704.612875 317.868157 707.362875 317.868157 
z
" style="fill: #ffffff; stroke: #2a9d8f; stroke-linejoin: miter"/>
    </g>
    <!-- Latest -->
    <g style="fill: #2a9d8f" transform="translate(707.362875 301.007563) scale(0.11 -0.11)">
     <defs>
      <path id="ArialMT-4c" d="M 469 0 
L 469 4581 
L 1075 4581 
L 1075 541 
L 3331 541 
L 3331 0 
L 469 0 
z
" transform="scale(0.015625)"/>
     </defs>
     <use xlink:href="#ArialMT-4c"/>
     <use xlink:href="#ArialMT-61" transform="translate(55.615234 0)"/>
     <use xlink:href="#ArialMT-74" transform="translate(111.230469 0)"/>
     <use xlink:href="#ArialMT-65" transform="translate(139.013672 0)"/>
     <use xlink:href="#ArialMT-73" transform="translate(194.628906 0)"/>
     <use xlink:href="#ArialMT-74" transform="translate(244.628906 0)"/>
    </g>
    <!-- 3.72% (2023) -->
    <g style="fill: #2a9d8f" transform="translate(707.362875 312.803001) scale(0.11 -0.11)">
     <use xlink:href="#ArialMT-33"/>
     <use xlink:href="#ArialMT-2e" transform="translate(55.615234 0)"/>
     <use xlink:href="#ArialMT-37" transform="translate(83.398438 0)"/>
     <use xlink:href="#ArialMT-32" transform="translate(139.013672 0)"/>
     <use xlink:href="#ArialMT-25" transform="translate(194.628906 0)"/>
     <use xlink:href="#ArialMT-20" transform="translate(283.544922 0)"/>
     <use xlink:href="#ArialMT-28" transform="translate(311.328125 0)"/>
     <use xlink:href="#ArialMT-32" transform="translate(344.628906 0)"/>
     <use xlink:href="#ArialMT-30" transform="translate(400.244141 0)"/>
     <use xlink:href="#ArialMT-32" transform="translate(455.859375 0)"/>
     <use xlink:href="#ArialMT-33" transform="translate(511.474609 0)"/>
     <use xlink:href="#ArialMT-29" transform="translate(567.089844 0)"/>
    </g>
   </g>
   <g id="text_17">
    <g id="patch_11">
     <path d="M 56.926725 70.956075 
L 492.57985 70.956075 
Q 499.57985 70.956075 499.57985 63.956075 
L 499.57985 45.187325 
Q 499.57985 38.187325 492.57985 38.187325 
L 56.926725 38.187325 
Q 49.926725 38.187325 49.926725 45.187325 
L 49.926725 63.956075 
Q 49.926725 70.956075 56.926725 70.956075 
z
" style="fill: #ffffff; opacity: 0.96; stroke: #111111; stroke-width: 1.2; stroke-linejoin: miter"/>
    </g>
    <!-- Liquidity collapse (vs pre‑GFC peak): −58.7% -->
    <g style="fill: #111111" transform="translate(56.926725 59.7467) scale(0.2 -0.2)">
     <defs>
      <path id="Arial-BoldMT-4c" d="M 491 0 
L 491 4544 
L 1416 4544 
L 1416 772 
L 3716 772 
L 3716 0 
L 491 0 
z
" transform="scale(0.015625)"/>
      <path id="Arial-BoldMT-69" d="M 459 3769 
L 459 4581 
L 1338 4581 
L 1338 3769 
L 459 3769 
z
M 459 0 
L 459 3319 
L 1338 3319 
L 1338 0 
L 459 0 
z
" transform="scale(0.015625)"/>
      <path id="Arial-BoldMT-71" d="M 2628 -1263 
L 2628 406 
Q 2456 184 2200 54 
Q 1944 -75 1647 -75 
Q 1081 -75 716 350 
Q 284 847 284 1697 
Q 284 2497 689 2945 
Q 1094 3394 1694 3394 
Q 2025 3394 2267 3253 
Q 2509 3113 2697 2828 
L 2697 3319 
L 3506 3319 
L 3506 -1263 
L 2628 -1263 
z
M 2656 1700 
Q 2656 2209 2448 2457 
Q 2241 2706 1928 2706 
Q 1609 2706 1395 2453 
Q 1181 2200 1181 1650 
Q 1181 1103 1387 861 
Q 1594 619 1897 619 
Q 2200 619 2428 891 
Q 2656 1163 2656 1700 
z
" transform="scale(0.015625)"/>
      <path id="Arial-BoldMT-75" d="M 2644 0 
L 2644 497 
Q 2463 231 2167 78 
Q 1872 -75 1544 -75 
Q 1209 -75 943 72 
Q 678 219 559 484 
Q 441 750 441 1219 
L 441 3319 
L 1319 3319 
L 1319 1794 
Q 1319 1094 1367 936 
Q 1416 778 1544 686 
Q 1672 594 1869 594 
Q 2094 594 2272 717 
Q 2450 841 2515 1023 
Q 2581 1206 2581 1919 
L 2581 3319 
L 3459 3319 
L 3459 0 
L 2644 0 
z
" transform="scale(0.015625)"/>
      <path id="Arial-BoldMT-64" d="M 3503 0 
L 2688 0 
L 2688 488 
Q 2484 203 2207 64 
Q 1931 -75 1650 -75 
Q 1078 -75 670 386 
Q 263 847 263 1672 
Q 263 2516 659 2955 
Q 1056 3394 1663 3394 
Q 2219 3394 2625 2931 
L 2625 4581 
L 3503 4581 
L 3503 0 
z
M 1159 1731 
Q 1159 1200 1306 963 
Q 1519 619 1900 619 
Q 2203 619 2415 876 
Q 2628 1134 2628 1647 
Q 2628 2219 2422 2470 
Q 2216 2722 1894 2722 
Q 1581 2722 1370 2473 
Q 1159 2225 1159 1731 
z
" transform="scale(0.015625)"/>
      <path id="Arial-BoldMT-74" d="M 1981 3319 
L 1981 2619 
L 1381 2619 
L 1381 1281 
Q 1381 875 1398 808 
Q 1416 741 1477 697 
Q 1538 653 1625 653 
Q 1747 653 1978 738 
L 2053 56 
Q 1747 -75 1359 -75 
Q 1122 -75 931 4 
Q 741 84 652 211 
Q 563 338 528 553 
Q 500 706 500 1172 
L 500 2619 
L 97 2619 
L 97 3319 
L 500 3319 
L 500 3978 
L 1381 4491 
L 1381 3319 
L 1981 3319 
z
" transform="scale(0.015625)"/>
      <path id="Arial-BoldMT-79" d="M 44 3319 
L 978 3319 
L 1772 963 
L 2547 3319 
L 3456 3319 
L 2284 125 
L 2075 -453 
Q 1959 -744 1854 -897 
Q 1750 -1050 1614 -1145 
Q 1478 -1241 1279 -1294 
Q 1081 -1347 831 -1347 
Q 578 -1347 334 -1294 
L 256 -606 
Q 463 -647 628 -647 
Q 934 -647 1081 -467 
Q 1228 -288 1306 -9 
L 44 3319 
z
" transform="scale(0.015625)"/>
      <path id="Arial-BoldMT-20" transform="scale(0.015625)"/>
      <path id="Arial-BoldMT-63" d="M 3353 2338 
L 2488 2181 
Q 2444 2441 2289 2572 
Q 2134 2703 1888 2703 
Q 1559 2703 1364 2476 
Q 1169 2250 1169 1719 
Q 1169 1128 1367 884 
Q 1566 641 1900 641 
Q 2150 641 2309 783 
Q 2469 925 2534 1272 
L 3397 1125 
Q 3263 531 2881 228 
Q 2500 -75 1859 -75 
Q 1131 -75 698 384 
Q 266 844 266 1656 
Q 266 2478 700 2936 
Q 1134 3394 1875 3394 
Q 2481 3394 2839 3133 
Q 3197 2872 3353 2338 
z
" transform="scale(0.015625)"/>
      <path id="Arial-BoldMT-6f" d="M 256 1706 
Q 256 2144 472 2553 
Q 688 2963 1083 3178 
Q 1478 3394 1966 3394 
Q 2719 3394 3200 2905 
Q 3681 2416 3681 1669 
Q 3681 916 3195 420 
Q 2709 -75 1972 -75 
Q 1516 -75 1102 131 
Q 688 338 472 736 
Q 256 1134 256 1706 
z
M 1156 1659 
Q 1156 1166 1390 903 
Q 1625 641 1969 641 
Q 2313 641 2545 903 
Q 2778 1166 2778 1666 
Q 2778 2153 2545 2415 
Q 2313 2678 1969 2678 
Q 1625 2678 1390 2415 
Q 1156 2153 1156 1659 
z
" transform="scale(0.015625)"/>
      <path id="Arial-BoldMT-6c" d="M 459 0 
L 459 4581 
L 1338 4581 
L 1338 0 
L 459 0 
z
" transform="scale(0.015625)"/>
      <path id="Arial-BoldMT-61" d="M 1116 2306 
L 319 2450 
Q 453 2931 781 3162 
Q 1109 3394 1756 3394 
Q 2344 3394 2631 3255 
Q 2919 3116 3036 2902 
Q 3153 2688 3153 2116 
L 3144 1091 
Q 3144 653 3186 445 
Q 3228 238 3344 0 
L 2475 0 
Q 2441 88 2391 259 
Q 2369 338 2359 363 
Q 2134 144 1878 34 
Q 1622 -75 1331 -75 
Q 819 -75 523 203 
Q 228 481 228 906 
Q 228 1188 362 1408 
Q 497 1628 739 1745 
Q 981 1863 1438 1950 
Q 2053 2066 2291 2166 
L 2291 2253 
Q 2291 2506 2166 2614 
Q 2041 2722 1694 2722 
Q 1459 2722 1328 2630 
Q 1197 2538 1116 2306 
z
M 2291 1594 
Q 2122 1538 1756 1459 
Q 1391 1381 1278 1306 
Q 1106 1184 1106 997 
Q 1106 813 1243 678 
Q 1381 544 1594 544 
Q 1831 544 2047 700 
Q 2206 819 2256 991 
Q 2291 1103 2291 1419 
L 2291 1594 
z
" transform="scale(0.015625)"/>
      <path id="Arial-BoldMT-70" d="M 434 3319 
L 1253 3319 
L 1253 2831 
Q 1413 3081 1684 3237 
Q 1956 3394 2288 3394 
Q 2866 3394 3269 2941 
Q 3672 2488 3672 1678 
Q 3672 847 3265 386 
Q 2859 -75 2281 -75 
Q 2006 -75 1782 34 
Q 1559 144 1313 409 
L 1313 -1263 
L 434 -1263 
L 434 3319 
z
M 1303 1716 
Q 1303 1156 1525 889 
Q 1747 622 2066 622 
Q 2372 622 2575 867 
Q 2778 1113 2778 1672 
Q 2778 2194 2568 2447 
Q 2359 2700 2050 2700 
Q 1728 2700 1515 2451 
Q 1303 2203 1303 1716 
z
" transform="scale(0.015625)"/>
      <path id="Arial-BoldMT-73" d="M 150 947 
L 1031 1081 
Q 1088 825 1259 692 
Q 1431 559 1741 559 
Q 2081 559 2253 684 
Q 2369 772 2369 919 
Q 2369 1019 2306 1084 
Q 2241 1147 2013 1200 
Q 950 1434 666 1628 
Q 272 1897 272 2375 
Q 272 2806 612 3100 
Q 953 3394 1669 3394 
Q 2350 3394 2681 3172 
Q 3013 2950 3138 2516 
L 2309 2363 
Q 2256 2556 2107 2659 
Q 1959 2763 1684 2763 
Q 1338 2763 1188 2666 
Q 1088 2597 1088 2488 
Q 1088 2394 1175 2328 
Q 1294 2241 1995 2081 
Q 2697 1922 2975 1691 
Q 3250 1456 3250 1038 
Q 3250 581 2869 253 
Q 2488 -75 1741 -75 
Q 1063 -75 667 200 
Q 272 475 150 947 
z
" transform="scale(0.015625)"/>
      <path id="Arial-BoldMT-65" d="M 2381 1056 
L 3256 909 
Q 3088 428 2723 176 
Q 2359 -75 1813 -75 
Q 947 -75 531 491 
Q 203 944 203 1634 
Q 203 2459 634 2926 
Q 1066 3394 1725 3394 
Q 2466 3394 2894 2905 
Q 3322 2416 3303 1406 
L 1103 1406 
Q 1113 1016 1316 798 
Q 1519 581 1822 581 
Q 2028 581 2168 693 
Q 2309 806 2381 1056 
z
M 2431 1944 
Q 2422 2325 2234 2523 
Q 2047 2722 1778 2722 
Q 1491 2722 1303 2513 
Q 1116 2303 1119 1944 
L 2431 1944 
z
" transform="scale(0.015625)"/>
      <path id="Arial-BoldMT-28" d="M 1916 -1347 
L 1313 -1347 
Q 834 -625 584 153 
Q 334 931 334 1659 
Q 334 2563 644 3369 
Q 913 4069 1325 4659 
L 1925 4659 
Q 1497 3713 1336 3048 
Q 1175 2384 1175 1641 
Q 1175 1128 1270 590 
Q 1366 53 1531 -431 
Q 1641 -750 1916 -1347 
z
" transform="scale(0.015625)"/>
      <path id="Arial-BoldMT-76" d="M 1372 0 
L 34 3319 
L 956 3319 
L 1581 1625 
L 1763 1059 
Q 1834 1275 1853 1344 
Q 1897 1484 1947 1625 
L 2578 3319 
L 3481 3319 
L 2163 0 
L 1372 0 
z
" transform="scale(0.015625)"/>
      <path id="Arial-BoldMT-72" d="M 1300 0 
L 422 0 
L 422 3319 
L 1238 3319 
L 1238 2847 
Q 1447 3181 1614 3287 
Q 1781 3394 1994 3394 
Q 2294 3394 2572 3228 
L 2300 2463 
Q 2078 2606 1888 2606 
Q 1703 2606 1575 2504 
Q 1447 2403 1373 2137 
Q 1300 1872 1300 1025 
L 1300 0 
z
" transform="scale(0.015625)"/>
      <path id="Arial-BoldMT-2011" d="M 800 0 
L 800 4000 
L 4000 4000 
L 4000 0 
L 800 0 
z
M 900 100 
L 3900 100 
L 3900 3900 
L 900 3900 
L 900 100 
z
" transform="scale(0.015625)"/>
      <path id="Arial-BoldMT-47" d="M 2597 1684 
L 2597 2456 
L 4591 2456 
L 4591 631 
Q 4300 350 3748 136 
Q 3197 -78 2631 -78 
Q 1913 -78 1378 223 
Q 844 525 575 1086 
Q 306 1647 306 2306 
Q 306 3022 606 3578 
Q 906 4134 1484 4431 
Q 1925 4659 2581 4659 
Q 3434 4659 3914 4301 
Q 4394 3944 4531 3313 
L 3613 3141 
Q 3516 3478 3248 3673 
Q 2981 3869 2581 3869 
Q 1975 3869 1617 3484 
Q 1259 3100 1259 2344 
Q 1259 1528 1621 1120 
Q 1984 713 2572 713 
Q 2863 713 3155 827 
Q 3447 941 3656 1103 
L 3656 1684 
L 2597 1684 
z
" transform="scale(0.015625)"/>
      <path id="Arial-BoldMT-46" d="M 472 0 
L 472 4581 
L 3613 4581 
L 3613 3806 
L 1397 3806 
L 1397 2722 
L 3309 2722 
L 3309 1947 
L 1397 1947 
L 1397 0 
L 472 0 
z
" transform="scale(0.015625)"/>
      <path id="Arial-BoldMT-43" d="M 3397 1684 
L 4294 1400 
Q 4088 650 3608 286 
Q 3128 -78 2391 -78 
Q 1478 -78 890 545 
Q 303 1169 303 2250 
Q 303 3394 893 4026 
Q 1484 4659 2447 4659 
Q 3288 4659 3813 4163 
Q 4125 3869 4281 3319 
L 3366 3100 
Q 3284 3456 3026 3662 
Q 2769 3869 2400 3869 
Q 1891 3869 1573 3503 
Q 1256 3138 1256 2319 
Q 1256 1450 1568 1081 
Q 1881 713 2381 713 
Q 2750 713 3015 947 
Q 3281 1181 3397 1684 
z
" transform="scale(0.015625)"/>
      <path id="Arial-BoldMT-6b" d="M 428 0 
L 428 4581 
L 1306 4581 
L 1306 2150 
L 2334 3319 
L 3416 3319 
L 2281 2106 
L 3497 0 
L 2550 0 
L 1716 1491 
L 1306 1063 
L 1306 0 
L 428 0 
z
" transform="scale(0.015625)"/>
      <path id="Arial-BoldMT-29" d="M 216 -1347 
Q 475 -791 581 -494 
Q 688 -197 778 190 
Q 869 578 912 926 
Q 956 1275 956 1641 
Q 956 2384 797 3048 
Q 638 3713 209 4659 
L 806 4659 
Q 1278 3988 1539 3234 
Q 1800 2481 1800 1706 
Q 1800 1053 1594 306 
Q 1359 -531 822 -1347 
L 216 -1347 
z
" transform="scale(0.015625)"/>
      <path id="Arial-BoldMT-3a" d="M 628 2441 
L 628 3319 
L 1506 3319 
L 1506 2441 
L 628 2441 
z
M 628 0 
L 628 878 
L 1506 878 
L 1506 0 
L 628 0 
z
" transform="scale(0.015625)"/>
      <path id="Arial-BoldMT-2212" d="M 266 1850 
L 266 2672 
L 3469 2672 
L 3469 1850 
L 266 1850 
z
" transform="scale(0.015625)"/>
      <path id="Arial-BoldMT-35" d="M 284 1178 
L 1159 1269 
Q 1197 972 1381 798 
Q 1566 625 1806 625 
Q 2081 625 2272 848 
Q 2463 1072 2463 1522 
Q 2463 1944 2273 2155 
Q 2084 2366 1781 2366 
Q 1403 2366 1103 2031 
L 391 2134 
L 841 4519 
L 3163 4519 
L 3163 3697 
L 1506 3697 
L 1369 2919 
Q 1663 3066 1969 3066 
Q 2553 3066 2959 2641 
Q 3366 2216 3366 1538 
Q 3366 972 3038 528 
Q 2591 -78 1797 -78 
Q 1163 -78 763 262 
Q 363 603 284 1178 
z
" transform="scale(0.015625)"/>
      <path id="Arial-BoldMT-38" d="M 1025 2472 
Q 684 2616 529 2867 
Q 375 3119 375 3419 
Q 375 3931 733 4265 
Q 1091 4600 1750 4600 
Q 2403 4600 2764 4265 
Q 3125 3931 3125 3419 
Q 3125 3100 2959 2851 
Q 2794 2603 2494 2472 
Q 2875 2319 3073 2025 
Q 3272 1731 3272 1347 
Q 3272 713 2867 316 
Q 2463 -81 1791 -81 
Q 1166 -81 750 247 
Q 259 634 259 1309 
Q 259 1681 443 1992 
Q 628 2303 1025 2472 
z
M 1206 3356 
Q 1206 3094 1354 2947 
Q 1503 2800 1750 2800 
Q 2000 2800 2150 2948 
Q 2300 3097 2300 3359 
Q 2300 3606 2151 3754 
Q 2003 3903 1759 3903 
Q 1506 3903 1356 3753 
Q 1206 3603 1206 3356 
z
M 1125 1394 
Q 1125 1031 1311 828 
Q 1497 625 1775 625 
Q 2047 625 2225 820 
Q 2403 1016 2403 1384 
Q 2403 1706 2222 1901 
Q 2041 2097 1763 2097 
Q 1441 2097 1283 1875 
Q 1125 1653 1125 1394 
z
" transform="scale(0.015625)"/>
      <path id="Arial-BoldMT-2e" d="M 459 0 
L 459 878 
L 1338 878 
L 1338 0 
L 459 0 
z
" transform="scale(0.015625)"/>
      <path id="Arial-BoldMT-37" d="M 272 3703 
L 272 4519 
L 3275 4519 
L 3275 3881 
Q 2903 3516 2518 2831 
Q 2134 2147 1932 1376 
Q 1731 606 1734 0 
L 888 0 
Q 909 950 1279 1937 
Q 1650 2925 2269 3703 
L 272 3703 
z
" transform="scale(0.015625)"/>
      <path id="Arial-BoldMT-25" d="M 278 3450 
Q 278 4066 548 4362 
Q 819 4659 1281 4659 
Q 1759 4659 2029 4364 
Q 2300 4069 2300 3450 
Q 2300 2834 2029 2537 
Q 1759 2241 1297 2241 
Q 819 2241 548 2536 
Q 278 2831 278 3450 
z
M 963 3456 
Q 963 3009 1066 2856 
Q 1144 2744 1281 2744 
Q 1422 2744 1500 2856 
Q 1600 3009 1600 3456 
Q 1600 3903 1500 4053 
Q 1422 4169 1281 4169 
Q 1144 4169 1066 4056 
Q 963 3903 963 3456 
z
M 1950 -175 
L 1300 -175 
L 3741 4659 
L 4372 4659 
L 1950 -175 
z
M 3369 1028 
Q 3369 1644 3639 1941 
Q 3909 2238 4378 2238 
Q 4850 2238 5120 1941 
Q 5391 1644 5391 1028 
Q 5391 409 5120 112 
Q 4850 -184 4388 -184 
Q 3909 -184 3639 112 
Q 3369 409 3369 1028 
z
M 4053 1031 
Q 4053 584 4156 434 
Q 4234 319 4372 319 
Q 4513 319 4588 431 
Q 4691 584 4691 1031 
Q 4691 1478 4591 1631 
Q 4513 1744 4372 1744 
Q 4231 1744 4156 1631 
Q 4053 1478 4053 1031 
z
" transform="scale(0.015625)"/>
     </defs>
     <use xlink:href="#Arial-BoldMT-4c"/>
     <use xlink:href="#Arial-BoldMT-69" transform="translate(61.083984 0)"/>
     <use xlink:href="#Arial-BoldMT-71" transform="translate(88.867188 0)"/>
     <use xlink:href="#Arial-BoldMT-75" transform="translate(149.951172 0)"/>
     <use xlink:href="#Arial-BoldMT-69" transform="translate(211.035156 0)"/>
     <use xlink:href="#Arial-BoldMT-64" transform="translate(238.818359 0)"/>
     <use xlink:href="#Arial-BoldMT-69" transform="translate(299.902344 0)"/>
     <use xlink:href="#Arial-BoldMT-74" transform="translate(327.685547 0)"/>
     <use xlink:href="#Arial-BoldMT-79" transform="translate(360.986328 0)"/>
     <use xlink:href="#Arial-BoldMT-20" transform="translate(416.601562 0)"/>
     <use xlink:href="#Arial-BoldMT-63" transform="translate(444.384766 0)"/>
     <use xlink:href="#Arial-BoldMT-6f" transform="translate(500 0)"/>
     <use xlink:href="#Arial-BoldMT-6c" transform="translate(561.083984 0)"/>
     <use xlink:href="#Arial-BoldMT-6c" transform="translate(588.867188 0)"/>
     <use xlink:href="#Arial-BoldMT-61" transform="translate(616.650391 0)"/>
     <use xlink:href="#Arial-BoldMT-70" transform="translate(672.265625 0)"/>
     <use xlink:href="#Arial-BoldMT-73" transform="translate(733.349609 0)"/>
     <use xlink:href="#Arial-BoldMT-65" transform="translate(788.964844 0)"/>
     <use xlink:href="#Arial-BoldMT-20" transform="translate(844.580078 0)"/>
     <use xlink:href="#Arial-BoldMT-28" transform="translate(872.363281 0)"/>
     <use xlink:href="#Arial-BoldMT-76" transform="translate(905.664062 0)"/>
     <use xlink:href="#Arial-BoldMT-73" transform="translate(961.279297 0)"/>
     <use xlink:href="#Arial-BoldMT-20" transform="translate(1016.894531 0)"/>
     <use xlink:href="#Arial-BoldMT-70" transform="translate(1044.677734 0)"/>
     <use xlink:href="#Arial-BoldMT-72" transform="translate(1105.761719 0)"/>
     <use xlink:href="#Arial-BoldMT-65" transform="translate(1144.677734 0)"/>
     <use xlink:href="#Arial-BoldMT-2011" transform="translate(1200.292969 0)"/>
     <use xlink:href="#Arial-BoldMT-47" transform="translate(1275.292969 0)"/>
     <use xlink:href="#Arial-BoldMT-46" transform="translate(1353.076172 0)"/>
     <use xlink:href="#Arial-BoldMT-43" transform="translate(1414.160156 0)"/>
     <use xlink:href="#Arial-BoldMT-20" transform="translate(1486.376953 0)"/>
     <use xlink:href="#Arial-BoldMT-70" transform="translate(1514.160156 0)"/>
     <use xlink:href="#Arial-BoldMT-65" transform="translate(1575.244141 0)"/>
     <use xlink:href="#Arial-BoldMT-61" transform="translate(1630.859375 0)"/>
     <use xlink:href="#Arial-BoldMT-6b" transform="translate(1686.474609 0)"/>
     <use xlink:href="#Arial-BoldMT-29" transform="translate(1742.089844 0)"/>
     <use xlink:href="#Arial-BoldMT-3a" transform="translate(1775.390625 0)"/>
     <use xlink:href="#Arial-BoldMT-20" transform="translate(1808.691406 0)"/>
     <use xlink:href="#Arial-BoldMT-2212" transform="translate(1836.474609 0)"/>
     <use xlink:href="#Arial-BoldMT-35" transform="translate(1894.873047 0)"/>
     <use xlink:href="#Arial-BoldMT-38" transform="translate(1950.488281 0)"/>
     <use xlink:href="#Arial-BoldMT-2e" transform="translate(2006.103516 0)"/>
     <use xlink:href="#Arial-BoldMT-37" transform="translate(2033.886719 0)"/>
     <use xlink:href="#Arial-BoldMT-25" transform="translate(2089.501953 0)"/>
    </g>
   </g>
   <g id="text_18">
    <!-- Market Depth (Md): Stock Turnover (% of Housing Stock), 1998–2023 -->
    <g style="fill: #262626" transform="translate(269.291875 18.8475) scale(0.16 -0.16)">
     <defs>
      <path id="ArialMT-4d" d="M 475 0 
L 475 4581 
L 1388 4581 
L 2472 1338 
Q 2622 884 2691 659 
Q 2769 909 2934 1394 
L 4031 4581 
L 4847 4581 
L 4847 0 
L 4263 0 
L 4263 3834 
L 2931 0 
L 2384 0 
L 1059 3900 
L 1059 0 
L 475 0 
z
" transform="scale(0.015625)"/>
      <path id="ArialMT-44" d="M 494 0 
L 494 4581 
L 2072 4581 
Q 2606 4581 2888 4516 
Q 3281 4425 3559 4188 
Q 3922 3881 4101 3404 
Q 4281 2928 4281 2316 
Q 4281 1794 4159 1391 
Q 4038 988 3847 723 
Q 3656 459 3429 307 
Q 3203 156 2883 78 
Q 2563 0 2147 0 
L 494 0 
z
M 1100 541 
L 2078 541 
Q 2531 541 2789 625 
Q 3047 709 3200 863 
Q 3416 1078 3536 1442 
Q 3656 1806 3656 2325 
Q 3656 3044 3420 3430 
Q 3184 3816 2847 3947 
Q 2603 4041 2063 4041 
L 1100 4041 
L 1100 541 
z
" transform="scale(0.015625)"/>
      <path id="ArialMT-68" d="M 422 0 
L 422 4581 
L 984 4581 
L 984 2938 
Q 1378 3394 1978 3394 
Q 2347 3394 2619 3248 
Q 2891 3103 3008 2847 
Q 3125 2591 3125 2103 
L 3125 0 
L 2563 0 
L 2563 2103 
Q 2563 2525 2380 2717 
Q 2197 2909 1863 2909 
Q 1613 2909 1392 2779 
Q 1172 2650 1078 2428 
Q 984 2206 984 1816 
L 984 0 
L 422 0 
z
" transform="scale(0.015625)"/>
      <path id="ArialMT-64" d="M 2575 0 
L 2575 419 
Q 2259 -75 1647 -75 
Q 1250 -75 917 144 
Q 584 363 401 755 
Q 219 1147 219 1656 
Q 219 2153 384 2558 
Q 550 2963 881 3178 
Q 1213 3394 1622 3394 
Q 1922 3394 2156 3267 
Q 2391 3141 2538 2938 
L 2538 4581 
L 3097 4581 
L 3097 0 
L 2575 0 
z
M 797 1656 
Q 797 1019 1065 703 
Q 1334 388 1700 388 
Q 2069 388 2326 689 
Q 2584 991 2584 1609 
Q 2584 2291 2321 2609 
Q 2059 2928 1675 2928 
Q 1300 2928 1048 2622 
Q 797 2316 797 1656 
z
" transform="scale(0.015625)"/>
      <path id="ArialMT-3a" d="M 578 2678 
L 578 3319 
L 1219 3319 
L 1219 2678 
L 578 2678 
z
M 578 0 
L 578 641 
L 1219 641 
L 1219 0 
L 578 0 
z
" transform="scale(0.015625)"/>
      <path id="ArialMT-53" d="M 288 1472 
L 859 1522 
Q 900 1178 1048 958 
Q 1197 738 1509 602 
Q 1822 466 2213 466 
Q 2559 466 2825 569 
Q 3091 672 3220 851 
Q 3350 1031 3350 1244 
Q 3350 1459 3225 1620 
Q 3100 1781 2813 1891 
Q 2628 1963 1997 2114 
Q 1366 2266 1113 2400 
Q 784 2572 623 2826 
Q 463 3081 463 3397 
Q 463 3744 659 4045 
Q 856 4347 1234 4503 
Q 1613 4659 2075 4659 
Q 2584 4659 2973 4495 
Q 3363 4331 3572 4012 
Q 3781 3694 3797 3291 
L 3216 3247 
Q 3169 3681 2898 3903 
Q 2628 4125 2100 4125 
Q 1550 4125 1298 3923 
Q 1047 3722 1047 3438 
Q 1047 3191 1225 3031 
Q 1400 2872 2139 2705 
Q 2878 2538 3153 2413 
Q 3553 2228 3743 1945 
Q 3934 1663 3934 1294 
Q 3934 928 3725 604 
Q 3516 281 3123 101 
Q 2731 -78 2241 -78 
Q 1619 -78 1198 103 
Q 778 284 539 648 
Q 300 1013 288 1472 
z
" transform="scale(0.015625)"/>
      <path id="ArialMT-48" d="M 513 0 
L 513 4581 
L 1119 4581 
L 1119 2700 
L 3500 2700 
L 3500 4581 
L 4106 4581 
L 4106 0 
L 3500 0 
L 3500 2159 
L 1119 2159 
L 1119 0 
L 513 0 
z
" transform="scale(0.015625)"/>
      <path id="ArialMT-69" d="M 425 3934 
L 425 4581 
L 988 4581 
L 988 3934 
L 425 3934 
z
M 425 0 
L 425 3319 
L 988 3319 
L 988 0 
L 425 0 
z
" transform="scale(0.015625)"/>
      <path id="ArialMT-67" d="M 319 -275 
L 866 -356 
Q 900 -609 1056 -725 
Q 1266 -881 1628 -881 
Q 2019 -881 2231 -725 
Q 2444 -569 2519 -288 
Q 2563 -116 2559 434 
Q 2191 0 1641 0 
Q 956 0 581 494 
Q 206 988 206 1678 
Q 206 2153 378 2554 
Q 550 2956 876 3175 
Q 1203 3394 1644 3394 
Q 2231 3394 2613 2919 
L 2613 3319 
L 3131 3319 
L 3131 450 
Q 3131 -325 2973 -648 
Q 2816 -972 2473 -1159 
Q 2131 -1347 1631 -1347 
Q 1038 -1347 672 -1080 
Q 306 -813 319 -275 
z
M 784 1719 
Q 784 1066 1043 766 
Q 1303 466 1694 466 
Q 2081 466 2343 764 
Q 2606 1063 2606 1700 
Q 2606 2309 2336 2618 
Q 2066 2928 1684 2928 
Q 1309 2928 1046 2623 
Q 784 2319 784 1719 
z
" transform="scale(0.015625)"/>
      <path id="ArialMT-2c" d="M 569 0 
L 569 641 
L 1209 641 
L 1209 0 
Q 1209 -353 1084 -570 
Q 959 -788 688 -906 
L 531 -666 
Q 709 -588 793 -436 
Q 878 -284 888 0 
L 569 0 
z
" transform="scale(0.015625)"/>
      <path id="ArialMT-2013" d="M -13 1431 
L -13 1884 
L 3547 1884 
L 3547 1431 
L -13 1431 
z
" transform="scale(0.015625)"/>
     </defs>
     <use xlink:href="#ArialMT-4d"/>
     <use xlink:href="#ArialMT-61" transform="translate(83.300781 0)"/>
     <use xlink:href="#ArialMT-72" transform="translate(138.916016 0)"/>
     <use xlink:href="#ArialMT-6b" transform="translate(172.216797 0)"/>
     <use xlink:href="#ArialMT-65" transform="translate(222.216797 0)"/>
     <use xlink:href="#ArialMT-74" transform="translate(277.832031 0)"/>
     <use xlink:href="#ArialMT-20" transform="translate(305.615234 0)"/>
     <use xlink:href="#ArialMT-44" transform="translate(333.398438 0)"/>
     <use xlink:href="#ArialMT-65" transform="translate(405.615234 0)"/>
     <use xlink:href="#ArialMT-70" transform="translate(461.230469 0)"/>
     <use xlink:href="#ArialMT-74" transform="translate(516.845703 0)"/>
     <use xlink:href="#ArialMT-68" transform="translate(544.628906 0)"/>
     <use xlink:href="#ArialMT-20" transform="translate(600.244141 0)"/>
     <use xlink:href="#ArialMT-28" transform="translate(628.027344 0)"/>
     <use xlink:href="#ArialMT-4d" transform="translate(661.328125 0)"/>
     <use xlink:href="#ArialMT-64" transform="translate(744.628906 0)"/>
     <use xlink:href="#ArialMT-29" transform="translate(800.244141 0)"/>
     <use xlink:href="#ArialMT-3a" transform="translate(833.544922 0)"/>
     <use xlink:href="#ArialMT-20" transform="translate(861.328125 0)"/>
     <use xlink:href="#ArialMT-53" transform="translate(889.111328 0)"/>
     <use xlink:href="#ArialMT-74" transform="translate(955.810547 0)"/>
     <use xlink:href="#ArialMT-6f" transform="translate(983.59375 0)"/>
     <use xlink:href="#ArialMT-63" transform="translate(1039.208984 0)"/>
     <use xlink:href="#ArialMT-6b" transform="translate(1089.208984 0)"/>
     <use xlink:href="#ArialMT-20" transform="translate(1139.208984 0)"/>
     <use xlink:href="#ArialMT-54" transform="translate(1165.242188 0)"/>
     <use xlink:href="#ArialMT-75" transform="translate(1222.576172 0)"/>
     <use xlink:href="#ArialMT-72" transform="translate(1278.191406 0)"/>
     <use xlink:href="#ArialMT-6e" transform="translate(1311.492188 0)"/>
     <use xlink:href="#ArialMT-6f" transform="translate(1367.107422 0)"/>
     <use xlink:href="#ArialMT-76" transform="translate(1422.722656 0)"/>
     <use xlink:href="#ArialMT-65" transform="translate(1472.722656 0)"/>
     <use xlink:href="#ArialMT-72" transform="translate(1528.337891 0)"/>
     <use xlink:href="#ArialMT-20" transform="translate(1561.638672 0)"/>
     <use xlink:href="#ArialMT-28" transform="translate(1589.421875 0)"/>
     <use xlink:href="#ArialMT-25" transform="translate(1622.722656 0)"/>
     <use xlink:href="#ArialMT-20" transform="translate(1711.638672 0)"/>
     <use xlink:href="#ArialMT-6f" transform="translate(1739.421875 0)"/>
     <use xlink:href="#ArialMT-66" transform="translate(1795.037109 0)"/>
     <use xlink:href="#ArialMT-20" transform="translate(1822.820312 0)"/>
     <use xlink:href="#ArialMT-48" transform="translate(1850.603516 0)"/>
     <use xlink:href="#ArialMT-6f" transform="translate(1922.820312 0)"/>
     <use xlink:href="#ArialMT-75" transform="translate(1978.435547 0)"/>
     <use xlink:href="#ArialMT-73" transform="translate(2034.050781 0)"/>
     <use xlink:href="#ArialMT-69" transform="translate(2084.050781 0)"/>
     <use xlink:href="#ArialMT-6e" transform="translate(2106.267578 0)"/>
     <use xlink:href="#ArialMT-67" transform="translate(2161.882812 0)"/>
     <use xlink:href="#ArialMT-20" transform="translate(2217.498047 0)"/>
     <use xlink:href="#ArialMT-53" transform="translate(2245.28125 0)"/>
     <use xlink:href="#ArialMT-74" transform="translate(2311.980469 0)"/>
     <use xlink:href="#ArialMT-6f" transform="translate(2339.763672 0)"/>
     <use xlink:href="#ArialMT-63" transform="translate(2395.378906 0)"/>
     <use xlink:href="#ArialMT-6b" transform="translate(2445.378906 0)"/>
     <use xlink:href="#ArialMT-29" transform="translate(2495.378906 0)"/>
     <use xlink:href="#ArialMT-2c" transform="translate(2528.679688 0)"/>
     <use xlink:href="#ArialMT-20" transform="translate(2556.462891 0)"/>
     <use xlink:href="#ArialMT-31" transform="translate(2584.246094 0)"/>
     <use xlink:href="#ArialMT-39" transform="translate(2639.861328 0)"/>
     <use xlink:href="#ArialMT-39" transform="translate(2695.476562 0)"/>
     <use xlink:href="#ArialMT-38" transform="translate(2751.091797 0)"/>
     <use xlink:href="#ArialMT-2013" transform="translate(2806.707031 0)"/>
     <use xlink:href="#ArialMT-32" transform="translate(2862.322266 0)"/>
     <use xlink:href="#ArialMT-30" transform="translate(2917.9375 0)"/>
     <use xlink:href="#ArialMT-32" transform="translate(2973.552734 0)"/>
     <use xlink:href="#ArialMT-33" transform="translate(3029.167969 0)"/>
    </g>
   </g>
   <g id="PathCollection_1">
    <defs>
     <path id="m69a08a1a23" d="M 0 4.743416 
C 1.257969 4.743416 2.464584 4.24362 3.354102 3.354102 
C 4.24362 2.464584 4.743416 1.257969 4.743416 0 
C 4.743416 -1.257969 4.24362 -2.464584 3.354102 -3.354102 
C 2.464584 -4.24362 1.257969 -4.743416 0 -4.743416 
C -1.257969 -4.743416 -2.464584 -4.24362 -3.354102 -3.354102 
C -4.24362 -2.464584 -4.743416 -1.257969 -4.743416 0 
C -4.743416 1.257969 -4.24362 2.464584 -3.354102 3.354102 
C -2.464584 4.24362 -1.257969 4.743416 0 4.743416 
z
" style="stroke: #e63946"/>
    </defs>
    <g clip-path="url(#p0667cd0db3)">
     <use xlink:href="#m69a08a1a23" x="220.40533" y="90.310874" style="fill: #e63946; stroke: #e63946"/>
    </g>
   </g>
   <g id="PathCollection_2">
    <defs>
     <path id="mca27ba9a55" d="M 0 4.743416 
C 1.257969 4.743416 2.464584 4.24362 3.354102 3.354102 
C 4.24362 2.464584 4.743416 1.257969 4.743416 0 
C 4.743416 -1.257969 4.24362 -2.464584 3.354102 -3.354102 
C 2.464584 -4.24362 1.257969 -4.743416 0 -4.743416 
C -1.257969 -4.743416 -2.464584 -4.24362 -3.354102 -3.354102 
C -4.24362 -2.464584 -4.743416 -1.257969 -4.743416 0 
C -4.743416 1.257969 -4.24362 2.464584 -3.354102 3.354102 
C -2.464584 4.24362 -1.257969 4.743416 0 4.743416 
z
" style="stroke: #2a9d8f"/>
    </defs>
    <g clip-path="url(#p0667cd0db3)">
     <use xlink:href="#mca27ba9a55" x="950.841648" y="352.44525" style="fill: #2a9d8f; stroke: #2a9d8f"/>
    </g>
   </g>
  </g>
  <g id="text_19">
   <!-- Source: Home@ix Potton model. Pre‑GFC peak defined as 1998–2007. Latest available year: 2023. -->
   <g style="fill: #333333" transform="translate(7.2 422.282812) scale(0.1 -0.1)">
    <defs>
     <path id="ArialMT-6d" d="M 422 0 
L 422 3319 
L 925 3319 
L 925 2853 
Q 1081 3097 1340 3245 
Q 1600 3394 1931 3394 
Q 2300 3394 2536 3241 
Q 2772 3088 2869 2813 
Q 3263 3394 3894 3394 
Q 4388 3394 4653 3120 
Q 4919 2847 4919 2278 
L 4919 0 
L 4359 0 
L 4359 2091 
Q 4359 2428 4304 2576 
Q 4250 2725 4106 2815 
Q 3963 2906 3769 2906 
Q 3419 2906 3187 2673 
Q 2956 2441 2956 1928 
L 2956 0 
L 2394 0 
L 2394 2156 
Q 2394 2531 2256 2718 
Q 2119 2906 1806 2906 
Q 1569 2906 1367 2781 
Q 1166 2656 1075 2415 
Q 984 2175 984 1722 
L 984 0 
L 422 0 
z
" transform="scale(0.015625)"/>
     <path id="ArialMT-40" d="M 3628 509 
Q 3425 275 3173 133 
Q 2922 -9 2669 -9 
Q 2391 -9 2128 153 
Q 1866 316 1702 653 
Q 1538 991 1538 1394 
Q 1538 1891 1792 2389 
Q 2047 2888 2425 3138 
Q 2803 3388 3159 3388 
Q 3431 3388 3678 3245 
Q 3925 3103 4103 2813 
L 4209 3297 
L 4769 3297 
L 4319 1200 
Q 4225 763 4225 716 
Q 4225 631 4289 570 
Q 4353 509 4444 509 
Q 4609 509 4878 700 
Q 5234 950 5442 1370 
Q 5650 1791 5650 2238 
Q 5650 2759 5383 3212 
Q 5116 3666 4586 3937 
Q 4056 4209 3416 4209 
Q 2684 4209 2079 3867 
Q 1475 3525 1142 2886 
Q 809 2247 809 1516 
Q 809 750 1142 197 
Q 1475 -356 2104 -620 
Q 2734 -884 3500 -884 
Q 4319 -884 4872 -609 
Q 5425 -334 5700 59 
L 6266 59 
Q 6106 -269 5718 -609 
Q 5331 -950 4797 -1148 
Q 4263 -1347 3509 -1347 
Q 2816 -1347 2230 -1169 
Q 1644 -991 1231 -633 
Q 819 -275 609 191 
Q 347 781 347 1466 
Q 347 2228 659 2919 
Q 1041 3766 1742 4216 
Q 2444 4666 3444 4666 
Q 4219 4666 4836 4348 
Q 5453 4031 5809 3403 
Q 6113 2863 6113 2228 
Q 6113 1322 5475 619 
Q 4906 -13 4231 -13 
Q 4016 -13 3883 53 
Q 3750 119 3688 241 
Q 3647 319 3628 509 
z
M 2116 1356 
Q 2116 928 2319 690 
Q 2522 453 2784 453 
Q 2959 453 3153 558 
Q 3347 663 3523 869 
Q 3700 1075 3812 1392 
Q 3925 1709 3925 2028 
Q 3925 2453 3714 2687 
Q 3503 2922 3200 2922 
Q 3000 2922 2823 2820 
Q 2647 2719 2481 2494 
Q 2316 2269 2216 1947 
Q 2116 1625 2116 1356 
z
" transform="scale(0.015625)"/>
     <path id="ArialMT-78" d="M 47 0 
L 1259 1725 
L 138 3319 
L 841 3319 
L 1350 2541 
Q 1494 2319 1581 2169 
Q 1719 2375 1834 2534 
L 2394 3319 
L 3066 3319 
L 1919 1756 
L 3153 0 
L 2463 0 
L 1781 1031 
L 1600 1309 
L 728 0 
L 47 0 
z
" transform="scale(0.015625)"/>
     <path id="ArialMT-6c" d="M 409 0 
L 409 4581 
L 972 4581 
L 972 0 
L 409 0 
z
" transform="scale(0.015625)"/>
     <path id="ArialMT-62" d="M 941 0 
L 419 0 
L 419 4581 
L 981 4581 
L 981 2947 
Q 1338 3394 1891 3394 
Q 2197 3394 2470 3270 
Q 2744 3147 2920 2923 
Q 3097 2700 3197 2384 
Q 3297 2069 3297 1709 
Q 3297 856 2875 390 
Q 2453 -75 1863 -75 
Q 1275 -75 941 416 
L 941 0 
z
M 934 1684 
Q 934 1088 1097 822 
Q 1363 388 1816 388 
Q 2184 388 2453 708 
Q 2722 1028 2722 1663 
Q 2722 2313 2464 2622 
Q 2206 2931 1841 2931 
Q 1472 2931 1203 2611 
Q 934 2291 934 1684 
z
" transform="scale(0.015625)"/>
     <path id="ArialMT-79" d="M 397 -1278 
L 334 -750 
Q 519 -800 656 -800 
Q 844 -800 956 -737 
Q 1069 -675 1141 -563 
Q 1194 -478 1313 -144 
Q 1328 -97 1363 -6 
L 103 3319 
L 709 3319 
L 1400 1397 
Q 1534 1031 1641 628 
Q 1738 1016 1872 1384 
L 2581 3319 
L 3144 3319 
L 1881 -56 
Q 1678 -603 1566 -809 
Q 1416 -1088 1222 -1217 
Q 1028 -1347 759 -1347 
Q 597 -1347 397 -1278 
z
" transform="scale(0.015625)"/>
    </defs>
    <use xlink:href="#ArialMT-53"/>
    <use xlink:href="#ArialMT-6f" transform="translate(66.699219 0)"/>
    <use xlink:href="#ArialMT-75" transform="translate(122.314453 0)"/>
    <use xlink:href="#ArialMT-72" transform="translate(177.929688 0)"/>
    <use xlink:href="#ArialMT-63" transform="translate(211.230469 0)"/>
    <use xlink:href="#ArialMT-65" transform="translate(261.230469 0)"/>
    <use xlink:href="#ArialMT-3a" transform="translate(316.845703 0)"/>
    <use xlink:href="#ArialMT-20" transform="translate(344.628906 0)"/>
    <use xlink:href="#ArialMT-48" transform="translate(372.412109 0)"/>
    <use xlink:href="#ArialMT-6f" transform="translate(444.628906 0)"/>
    <use xlink:href="#ArialMT-6d" transform="translate(500.244141 0)"/>
    <use xlink:href="#ArialMT-65" transform="translate(583.544922 0)"/>
    <use xlink:href="#ArialMT-40" transform="translate(639.160156 0)"/>
    <use xlink:href="#ArialMT-69" transform="translate(740.673828 0)"/>
    <use xlink:href="#ArialMT-78" transform="translate(762.890625 0)"/>
    <use xlink:href="#ArialMT-20" transform="translate(812.890625 0)"/>
    <use xlink:href="#ArialMT-50" transform="translate(840.673828 0)"/>
    <use xlink:href="#ArialMT-6f" transform="translate(907.373047 0)"/>
    <use xlink:href="#ArialMT-74" transform="translate(962.988281 0)"/>
    <use xlink:href="#ArialMT-74" transform="translate(990.771484 0)"/>
    <use xlink:href="#ArialMT-6f" transform="translate(1018.554688 0)"/>
    <use xlink:href="#ArialMT-6e" transform="translate(1074.169922 0)"/>
    <use xlink:href="#ArialMT-20" transform="translate(1129.785156 0)"/>
    <use xlink:href="#ArialMT-6d" transform="translate(1157.568359 0)"/>
    <use xlink:href="#ArialMT-6f" transform="translate(1240.869141 0)"/>
    <use xlink:href="#ArialMT-64" transform="translate(1296.484375 0)"/>
    <use xlink:href="#ArialMT-65" transform="translate(1352.099609 0)"/>
    <use xlink:href="#ArialMT-6c" transform="translate(1407.714844 0)"/>
    <use xlink:href="#ArialMT-2e" transform="translate(1429.931641 0)"/>
    <use xlink:href="#ArialMT-20" transform="translate(1457.714844 0)"/>
    <use xlink:href="#ArialMT-50" transform="translate(1485.498047 0)"/>
    <use xlink:href="#ArialMT-72" transform="translate(1552.197266 0)"/>
    <use xlink:href="#ArialMT-65" transform="translate(1585.498047 0)"/>
    <use xlink:href="#ArialMT-2011" transform="translate(1641.113281 0)"/>
    <use xlink:href="#ArialMT-47" transform="translate(1716.113281 0)"/>
    <use xlink:href="#ArialMT-46" transform="translate(1793.896484 0)"/>
    <use xlink:href="#ArialMT-43" transform="translate(1854.980469 0)"/>
    <use xlink:href="#ArialMT-20" transform="translate(1927.197266 0)"/>
    <use xlink:href="#ArialMT-70" transform="translate(1954.980469 0)"/>
    <use xlink:href="#ArialMT-65" transform="translate(2010.595703 0)"/>
    <use xlink:href="#ArialMT-61" transform="translate(2066.210938 0)"/>
    <use xlink:href="#ArialMT-6b" transform="translate(2121.826172 0)"/>
    <use xlink:href="#ArialMT-20" transform="translate(2171.826172 0)"/>
    <use xlink:href="#ArialMT-64" transform="translate(2199.609375 0)"/>
    <use xlink:href="#ArialMT-65" transform="translate(2255.224609 0)"/>
    <use xlink:href="#ArialMT-66" transform="translate(2310.839844 0)"/>
    <use xlink:href="#ArialMT-69" transform="translate(2338.623047 0)"/>
    <use xlink:href="#ArialMT-6e" transform="translate(2360.839844 0)"/>
    <use xlink:href="#ArialMT-65" transform="translate(2416.455078 0)"/>
    <use xlink:href="#ArialMT-64" transform="translate(2472.070312 0)"/>
    <use xlink:href="#ArialMT-20" transform="translate(2527.685547 0)"/>
    <use xlink:href="#ArialMT-61" transform="translate(2555.46875 0)"/>
    <use xlink:href="#ArialMT-73" transform="translate(2611.083984 0)"/>
    <use xlink:href="#ArialMT-20" transform="translate(2661.083984 0)"/>
    <use xlink:href="#ArialMT-31" transform="translate(2688.867188 0)"/>
    <use xlink:href="#ArialMT-39" transform="translate(2744.482422 0)"/>
    <use xlink:href="#ArialMT-39" transform="translate(2800.097656 0)"/>
    <use xlink:href="#ArialMT-38" transform="translate(2855.712891 0)"/>
    <use xlink:href="#ArialMT-2013" transform="translate(2911.328125 0)"/>
    <use xlink:href="#ArialMT-32" transform="translate(2966.943359 0)"/>
    <use xlink:href="#ArialMT-30" transform="translate(3022.558594 0)"/>
    <use xlink:href="#ArialMT-30" transform="translate(3078.173828 0)"/>
    <use xlink:href="#ArialMT-37" transform="translate(3133.789062 0)"/>
    <use xlink:href="#ArialMT-2e" transform="translate(3189.404297 0)"/>
    <use xlink:href="#ArialMT-20" transform="translate(3217.1875 0)"/>
    <use xlink:href="#ArialMT-4c" transform="translate(3244.970703 0)"/>
    <use xlink:href="#ArialMT-61" transform="translate(3300.585938 0)"/>
    <use xlink:href="#ArialMT-74" transform="translate(3356.201172 0)"/>
    <use xlink:href="#ArialMT-65" transform="translate(3383.984375 0)"/>
    <use xlink:href="#ArialMT-73" transform="translate(3439.599609 0)"/>
    <use xlink:href="#ArialMT-74" transform="translate(3489.599609 0)"/>
    <use xlink:href="#ArialMT-20" transform="translate(3517.382812 0)"/>
    <use xlink:href="#ArialMT-61" transform="translate(3545.166016 0)"/>
    <use xlink:href="#ArialMT-76" transform="translate(3600.78125 0)"/>
    <use xlink:href="#ArialMT-61" transform="translate(3650.78125 0)"/>
    <use xlink:href="#ArialMT-69" transform="translate(3706.396484 0)"/>
    <use xlink:href="#ArialMT-6c" transform="translate(3728.613281 0)"/>
    <use xlink:href="#ArialMT-61" transform="translate(3750.830078 0)"/>
    <use xlink:href="#ArialMT-62" transform="translate(3806.445312 0)"/>
    <use xlink:href="#ArialMT-6c" transform="translate(3862.060547 0)"/>
    <use xlink:href="#ArialMT-65" transform="translate(3884.277344 0)"/>
    <use xlink:href="#ArialMT-20" transform="translate(3939.892578 0)"/>
    <use xlink:href="#ArialMT-79" transform="translate(3967.675781 0)"/>
    <use xlink:href="#ArialMT-65" transform="translate(4017.675781 0)"/>
    <use xlink:href="#ArialMT-61" transform="translate(4073.291016 0)"/>
    <use xlink:href="#ArialMT-72" transform="translate(4128.90625 0)"/>
    <use xlink:href="#ArialMT-3a" transform="translate(4162.207031 0)"/>
    <use xlink:href="#ArialMT-20" transform="translate(4189.990234 0)"/>
    <use xlink:href="#ArialMT-32" transform="translate(4217.773438 0)"/>
    <use xlink:href="#ArialMT-30" transform="translate(4273.388672 0)"/>
    <use xlink:href="#ArialMT-32" transform="translate(4329.003906 0)"/>
    <use xlink:href="#ArialMT-33" transform="translate(4384.619141 0)"/>
    <use xlink:href="#ArialMT-2e" transform="translate(4440.234375 0)"/>
   </g>
  </g>
 </g>
 <defs>
  <clipPath id="p0667cd0db3">
   <rect x="37.79625" y="30.8475" width="956.52375" height="361.24"/>
  </clipPath>
 </defs>
</svg>
